# xmcd
#
# Track frame offsets: 
#        150
#        14327
#        29072
#        41439
#        53164
#        64873
#        74515
#        87077
#        100609
#        113977
#        126871
#        139623
#
# Disc length: 2075 seconds
#
# Revision: 0
# Processed by: cddbd v1.5.2PL0 Copyright (c) Steve Scherf et al.
# Submitted via: ExactAudioCopy v0.95b4
#
DISCID=a408190c
DTITLE=Skipper Just Frost - Trio
DYEAR=2009
DGENRE=R&B
TTITLE0=Come With Me
TTITLE1=Hey Mr. Cabdriver
TTITLE2=You Are On My Mind
TTITLE3=I Will Love You
TTITLE4=Give It Love
TTITLE5=You're So Fine
TTITLE6=Dancefloor
TTITLE7=I Keep Seeing You
TTITLE8=Indians
TTITLE9=Look At The Flowers
TTITLE10=Yours Forever
TTITLE11=Peace In The World
EXTD=
EXTT0=
EXTT1=
EXTT2=
EXTT3=
EXTT4=
EXTT5=
EXTT6=
EXTT7=
EXTT8=
EXTT9=
EXTT10=
EXTT11=
PLAYORDER=
